<?xml version="1.0" encoding="UTF-8" standalone="no"?>
<svg
   width="512"
   height="512"
   viewBox="0 0 512 512"
   version="1.1"
   xmlns:xlink="http://www.w3.org/1999/xlink"
   xmlns="http://www.w3.org/2000/svg"
   xmlns:svg="http://www.w3.org/2000/svg"
   xmlns:rdf="http://www.w3.org/1999/02/22-rdf-syntax-ns#"
   xmlns:cc="http://creativecommons.org/ns#"
   xmlns:dc="http://purl.org/dc/elements/1.1/">
  <defs>
    <linearGradient id="fon">
      <stop style="stop-color:#006600;stop-opacity:1" offset="0.000" />
      <stop style="stop-color:#000000;stop-opacity:1" offset="1.000" />
    </linearGradient>
    <linearGradient id="lin">
      <stop style="stop-color:#000000;stop-opacity:0" offset="0.000" />
      <stop style="stop-color:#00ff00;stop-opacity:1" offset="0.100" />
      <stop style="stop-color:#00ff00;stop-opacity:1" offset="0.110" />
      <stop style="stop-color:#000000;stop-opacity:0" offset="0.120" />
      <stop style="stop-color:#00ff00;stop-opacity:1" offset="0.130" />
      <stop style="stop-color:#00ff00;stop-opacity:1" offset="0.140" />
      <stop style="stop-color:#000000;stop-opacity:0" offset="0.150" />
      <stop style="stop-color:#000000;stop-opacity:0" offset="1.000" />
    </linearGradient>
    <radialGradient
       xlink:href="#fon"
       id="221_modified"
       gradientUnits="userSpaceOnUse"
       cx="256"            
       cy="256"            
       fx="256"            
       fy="256"
       r="256"/>
    <radialGradient
       xlink:href="#lin"
       id="223_modified"
       spreadMethod="repeat"
       gradientUnits="userSpaceOnUse"
       cx="0"            
       cy="0"            
       fx="0"            
       fy="0"
       r="256"
       gradientTransform="translate(256 0) rotate(90) scale(0.9 1)">
    </radialGradient>
  </defs>
    <rect
       y="0"
       x="0"
       height="512"
       width="512"
       style="opacity:1;fill:url(#221_modified)"/>

    <rect y="0" x="0" height="512" width="512" transform="rotate(0   256 256)" style="opacity:0.15;fill:url(#223_modified)"/>
    <rect y="0" x="0" height="512" width="512" transform="rotate(20   256 256)" style="opacity:0.15;fill:url(#223_modified)"/>
    <rect y="0" x="0" height="512" width="512" transform="rotate(40   256 256)" style="opacity:0.15;fill:url(#223_modified)"/>
    <rect y="0" x="0" height="512" width="512" transform="rotate(60   256 256)" style="opacity:0.15;fill:url(#223_modified)"/>
    <rect y="0" x="0" height="512" width="512" transform="rotate(80   256 256)" style="opacity:0.15;fill:url(#223_modified)"/>
    <rect y="0" x="0" height="512" width="512" transform="rotate(100   256 256)" style="opacity:0.15;fill:url(#223_modified)"/>
    <rect y="0" x="0" height="512" width="512" transform="rotate(120   256 256)" style="opacity:0.15;fill:url(#223_modified)"/>
    <rect y="0" x="0" height="512" width="512" transform="rotate(140   256 256)" style="opacity:0.15;fill:url(#223_modified)"/>
    <rect y="0" x="0" height="512" width="512" transform="rotate(160   256 256)" style="opacity:0.15;fill:url(#223_modified)"/>
    <rect y="0" x="0" height="512" width="512" transform="rotate(180   256 256)" style="opacity:0.15;fill:url(#223_modified)"/>
    <rect y="0" x="0" height="512" width="512" transform="rotate(200   256 256)" style="opacity:0.15;fill:url(#223_modified)"/>
    <rect y="0" x="0" height="512" width="512" transform="rotate(220   256 256)" style="opacity:0.15;fill:url(#223_modified)"/>
    <rect y="0" x="0" height="512" width="512" transform="rotate(240   256 256)" style="opacity:0.15;fill:url(#223_modified)"/>
    <rect y="0" x="0" height="512" width="512" transform="rotate(260   256 256)" style="opacity:0.15;fill:url(#223_modified)"/>
    <rect y="0" x="0" height="512" width="512" transform="rotate(280   256 256)" style="opacity:0.15;fill:url(#223_modified)"/>
    <rect y="0" x="0" height="512" width="512" transform="rotate(300   256 256)" style="opacity:0.15;fill:url(#223_modified)"/>
    <rect y="0" x="0" height="512" width="512" transform="rotate(320   256 256)" style="opacity:0.15;fill:url(#223_modified)"/>
    <rect y="0" x="0" height="512" width="512" transform="rotate(340   256 256)" style="opacity:0.15;fill:url(#223_modified)"/>
</svg>