<svg width="100%" height="100%" viewBox="0 0 1000 1000" preserveAspectRatio="xMidYMid meet" xmlns="http://www.w3.org/2000/svg">
  <defs>
    <linearGradient id="lgs">
      <stop style="stop-color:#00ffcc;stop-opacity:1" offset="0" />
      <stop style="stop-color:#00ffcc;stop-opacity:0" offset="0.3" />
      <stop style="stop-color:#00ffcc;stop-opacity:0" offset="1" />
    </linearGradient>
    <radialGradient id="r2"
                cx="0.5" cy="0.5" r="0.5"
                fx="0.5" fy="0.5"
                href="#lgs"
                spreadMethod="reflect"
                gradientUnits="objectBoundingBox"
                gradientTransform=" scale(0.125 1) translate(0.25 0)">
    </radialGradient>
    <radialGradient id="r3"
                cx="0.5" cy="0.5" r="1.5"
                fx="0.5" fy="0.5"
                href="#lgs"
                spreadMethod="reflect"
                gradientUnits="objectBoundingBox"
                gradientTransform=" scale(0.125 1) translate(0.25 0)">
    </radialGradient>
  </defs>
  <rect x="0" y="0" width="1000" height="1000" fill="#000000" stroke="none" />
  <rect x="0" y="0" width="1000" height="1000" opacity="1" fill="url(#r2)" stroke="none" transform="rotate(0 500 500)"/>
  <rect x="0" y="0" width="1000" height="1000" opacity="1" fill="url(#r2)" stroke="none" transform="rotate(90 500 500)"/>
  <rect x="0" y="0" width="1000" height="1000" opacity="1" fill="url(#r2)" stroke="none" transform="rotate(180 500 500)"/>
  <rect x="0" y="0" width="1000" height="1000" opacity="1" fill="url(#r2)" stroke="none" transform="rotate(270 500 500)"/>
  <rect x="0" y="0" width="1000" height="1000" opacity="0.7" fill="url(#r3)" stroke="none" transform="rotate(0 500 500)"/>
  <rect x="0" y="0" width="1000" height="1000" opacity="0.7" fill="url(#r3)" stroke="none" transform="rotate(90 500 500)"/>
  <rect x="0" y="0" width="1000" height="1000" opacity="0.7" fill="url(#r3)" stroke="none" transform="rotate(180 500 500)"/>
  <rect x="0" y="0" width="1000" height="1000" opacity="0.7" fill="url(#r3)" stroke="none" transform="rotate(270 500 500)"/>
</svg>